<svg width="24" height="24" viewBox="0 0 24 24" fill="none" xmlns="http://www.w3.org/2000/svg">
<g id="fluent:next-32-filled">
<path id="Vector" d="M19.5013 3.75001C19.5013 3.5511 19.5803 3.36033 19.7209 3.21968C19.8616 3.07903 20.0524 3.00001 20.2513 3.00001C20.4502 3.00001 20.641 3.07903 20.7816 3.21968C20.9223 3.36033 21.0013 3.5511 21.0013 3.75001V20.25C21.0013 20.4489 20.9223 20.6397 20.7816 20.7803C20.641 20.921 20.4502 21 20.2513 21C20.0524 21 19.8616 20.921 19.7209 20.7803C19.5803 20.6397 19.5013 20.4489 19.5013 20.25V3.75001ZM2.99902 4.87801C2.99902 3.37651 4.67602 2.48401 5.92177 3.32326L16.424 10.3973C16.6778 10.5683 16.8858 10.7989 17.0299 11.0689C17.1741 11.3389 17.2499 11.64 17.2509 11.9461C17.2518 12.2521 17.1779 12.5537 17.0354 12.8246C16.893 13.0955 16.6864 13.3273 16.4338 13.5L5.93152 20.67C4.68652 21.519 2.99902 20.628 2.99902 19.1205V4.87951V4.87801Z" fill="#BABABA"/>
</g>
</svg>
