<svg width="24" height="24" viewBox="0 0 24 24" fill="none" xmlns="http://www.w3.org/2000/svg">
<g id="ph:shuffle-duotone">
<path id="Vector" d="M22.2844 16.7156C22.4252 16.8578 22.5042 17.0498 22.5042 17.25C22.5042 17.4501 22.4252 17.6422 22.2844 17.7843L20.0344 20.0343C19.891 20.173 19.6994 20.2504 19.5 20.2504C19.3006 20.2504 19.109 20.173 18.9656 20.0343C18.8248 19.8922 18.7458 19.7001 18.7458 19.5C18.7458 19.2998 18.8248 19.1078 18.9656 18.9656L19.9406 18H18.8344C17.7596 17.9981 16.7008 17.7403 15.7455 17.248C14.7902 16.7556 13.9658 16.0429 13.3406 15.1687L9.43125 9.7031C8.94613 9.02368 8.30623 8.46951 7.56449 8.08641C6.82274 7.70331 6.00046 7.50229 5.16562 7.49997H3C2.80109 7.49997 2.61032 7.42095 2.46967 7.2803C2.32902 7.13965 2.25 6.94888 2.25 6.74997C2.25 6.55106 2.32902 6.36029 2.46967 6.21964C2.61032 6.07899 2.80109 5.99997 3 5.99997H5.16562C6.24035 6.00186 7.29918 6.25964 8.2545 6.75197C9.20983 7.24431 10.0342 7.95705 10.6594 8.83122L14.5687 14.2968C15.0539 14.9763 15.6938 15.5304 16.4355 15.9135C17.1773 16.2966 17.9995 16.4977 18.8344 16.5H19.9406L18.9656 15.5343C18.846 15.3886 18.7849 15.2036 18.7942 15.0153C18.8034 14.827 18.8824 14.6489 19.0157 14.5156C19.149 14.3823 19.3271 14.3034 19.5154 14.2941C19.7037 14.2849 19.8887 14.346 20.0344 14.4656L22.2844 16.7156ZM13.4062 10.0312C13.4867 10.0889 13.5779 10.13 13.6743 10.1523C13.7708 10.1745 13.8707 10.1774 13.9684 10.1609C14.066 10.1443 14.1593 10.1086 14.2431 10.0558C14.3268 10.0029 14.3993 9.93406 14.4562 9.8531L14.5687 9.7031C15.0539 9.02368 15.6938 8.46951 16.4355 8.08641C17.1773 7.70331 17.9995 7.50229 18.8344 7.49997H19.9406L18.9656 8.4656C18.8248 8.60779 18.7458 8.79984 18.7458 8.99997C18.7458 9.20011 18.8248 9.39215 18.9656 9.53435C19.109 9.67296 19.3006 9.75045 19.5 9.75045C19.6994 9.75045 19.891 9.67296 20.0344 9.53435L22.2844 7.28435C22.4252 7.14215 22.5042 6.95011 22.5042 6.74997C22.5042 6.54984 22.4252 6.35779 22.2844 6.2156L20.0344 3.9656C19.8887 3.846 19.7037 3.78488 19.5154 3.79413C19.3271 3.80338 19.149 3.88233 19.0157 4.01563C18.8824 4.14893 18.8034 4.32705 18.7942 4.51534C18.7849 4.70363 18.846 4.88862 18.9656 5.03435L19.9406 5.99997H18.8344C17.7596 6.00186 16.7008 6.25964 15.7455 6.75197C14.7902 7.24431 13.9658 7.95705 13.3406 8.83122L13.2375 8.98122C13.1794 9.06115 13.1376 9.15178 13.1147 9.2479C13.0917 9.34402 13.0879 9.44373 13.1036 9.5413C13.1193 9.63888 13.1541 9.73239 13.206 9.81647C13.258 9.90054 13.326 9.97353 13.4062 10.0312ZM10.5938 13.9687C10.5133 13.9111 10.4221 13.8699 10.3257 13.8477C10.2292 13.8254 10.1293 13.8225 10.0316 13.8391C9.93403 13.8556 9.84066 13.8913 9.75692 13.9442C9.67318 13.997 9.60073 14.0659 9.54375 14.1468L9.43125 14.2968C8.94613 14.9763 8.30623 15.5304 7.56449 15.9135C6.82274 16.2966 6.00046 16.4977 5.16562 16.5H3C2.80109 16.5 2.61032 16.579 2.46967 16.7196C2.32902 16.8603 2.25 17.0511 2.25 17.25C2.25 17.4489 2.32902 17.6396 2.46967 17.7803C2.61032 17.921 2.80109 18 3 18H5.16562C6.24035 17.9981 7.29918 17.7403 8.2545 17.248C9.20983 16.7556 10.0342 16.0429 10.6594 15.1687L10.7625 15.0187C10.8206 14.9388 10.8624 14.8482 10.8853 14.752C10.9083 14.6559 10.9121 14.5562 10.8964 14.4586C10.8807 14.3611 10.8459 14.2676 10.794 14.1835C10.742 14.0994 10.674 14.0264 10.5938 13.9687Z" fill="#BABABA"/>
</g>
</svg>
