<svg width="24" height="24" viewBox="0 0 24 24" fill="none" xmlns="http://www.w3.org/2000/svg">
<g id="fluent:next-32-filled">
<path id="Vector" d="M4.49873 3.75001C4.49873 3.5511 4.41971 3.36033 4.27906 3.21968C4.1384 3.07903 3.94764 3.00001 3.74873 3.00001C3.54981 3.00001 3.35905 3.07903 3.2184 3.21968C3.07775 3.36033 2.99873 3.5511 2.99873 3.75001V20.25C2.99873 20.4489 3.07775 20.6397 3.2184 20.7803C3.35905 20.921 3.54981 21 3.74873 21C3.94764 21 4.1384 20.921 4.27906 20.7803C4.41971 20.6397 4.49873 20.4489 4.49873 20.25V3.75001ZM21.001 4.87801C21.001 3.37651 19.324 2.48401 18.0782 3.32326L7.57598 10.3973C7.32222 10.5683 7.1142 10.7989 6.97007 11.0689C6.82594 11.3389 6.75008 11.64 6.74912 11.9461C6.74816 12.2521 6.82212 12.5537 6.96455 12.8246C7.10698 13.0955 7.31355 13.3273 7.56623 13.5L18.0685 20.67C19.3135 21.519 21.001 20.628 21.001 19.1205V4.87951V4.87801Z" fill="#BABABA"/>
</g>
</svg>
